<svg id="Capa_1" enable-background="new 0 0 497.933 497.933" height="512" viewBox="0 0 497.933 497.933" width="512" xmlns="http://www.w3.org/2000/svg"><g><path d="m209.851 179.319c0-79.551 64.489-144.04 144.039-144.041 79.582-.001 143.943 64.275 144.043 143.857.076 60.443-37.083 112.209-89.806 133.654v42.639c0 3.875-4.35 6.158-7.539 3.957l-52.365-36.146c-76.922-2.979-138.372-66.268-138.372-143.92z" fill="#f58a97"/><path d="m258.363 145.528c11.842-54.39 54.407-97.307 108.608-109.655-4.309-.386-8.67-.595-13.081-.595-79.551.001-144.039 64.49-144.039 144.041 0 48.454 23.927 91.313 60.609 117.419v-.055c10.482 7.466 21.986 13.59 34.294 18.056 2.193-10.759 3.328-21.805 3.328-33.009 0-42.472-16.243-81.204-42.826-110.36-6.352-6.965-8.898-16.631-6.893-25.842z" fill="#f07281"/><path d="m288.082 281.73c0-79.551-64.488-144.04-144.039-144.041-79.582-.001-143.943 64.276-144.043 143.857-.076 60.443 37.083 112.209 89.806 133.654v42.639c0 3.875 4.35 6.158 7.539 3.957l52.365-36.146c76.923-2.979 138.372-66.268 138.372-143.92z" fill="#ade194"/><path d="m133.136 431.197c0-13.18-7.074-25.286-18.447-31.947-42.736-25.026-71.425-71.441-71.358-124.558.08-64.195 41.992-118.429 99.96-137.001-79.229.411-143.192 64.529-143.291 143.855-.076 60.443 37.083 112.208 89.806 133.654v42.639c0 3.875 4.35 6.158 7.539 3.957l35.79-24.705v-5.894z" fill="#97da7b"/><g fill="#f9f7f8"><path d="m390.03 182.656 28.157-28.157c2.532-2.532 2.532-6.638 0-9.17l-19.289-19.289c-2.532-2.532-6.638-2.532-9.17 0l-28.157 28.157-28.157-28.157c-2.532-2.532-6.638-2.532-9.17 0l-19.289 19.289c-2.532 2.532-2.532 6.638 0 9.17l28.157 28.157-28.157 28.157c-2.532 2.532-2.532 6.638 0 9.17l19.289 19.289c2.532 2.532 6.638 2.532 9.17 0l28.157-28.157 28.157 28.157c2.532 2.532 6.638 2.532 9.17 0l19.289-19.289c2.532-2.532 2.532-6.638 0-9.17z"/><path d="m106.923 341.429h26.122c.886 0 1.737-.351 2.365-.977l78.302-78.014c1.349-1.344 1.373-3.521.054-4.895l-23.286-24.246c-1.354-1.41-3.601-1.434-4.986-.055l-63.677 63.443-15.968-20.112c-.51-.643-1.442-.758-2.093-.258l-29.826 22.89c-.665.51-.784 1.466-.265 2.124l30.268 38.398c.134.172.272.341.412.507.64.757 1.584 1.195 2.578 1.195z"/></g></g></svg>