<?xml version="1.0" standalone="no"?>
<!DOCTYPE svg PUBLIC "-//W3C//DTD SVG 20010904//EN"
 "http://www.w3.org/TR/2001/REC-SVG-20010904/DTD/svg10.dtd">
<svg version="1.0" xmlns="http://www.w3.org/2000/svg"
 width="512.000000pt" height="512.000000pt" viewBox="0 0 512.000000 512.000000"
 preserveAspectRatio="xMidYMid meet">
<metadata>
Created by potrace 1.11, written by Peter Selinger 2001-2013
</metadata>
<g transform="translate(0.000000,512.000000) scale(0.100000,-0.100000)"
fill="#000000" stroke="none">
<path d="M3458 4748 c-165 -18 -376 -86 -528 -171 -350 -193 -598 -501 -715
-887 -12 -41 -26 -94 -30 -117 l-7 -43 -40 21 c-321 164 -741 197 -1098 88
-509 -157 -892 -579 -1011 -1112 -31 -136 -35 -414 -9 -558 86 -474 398 -885
823 -1083 68 -32 77 -40 78 -64 0 -15 0 -118 0 -229 0 -187 2 -203 20 -219 15
-14 25 -15 45 -8 13 5 144 92 289 193 211 147 273 185 303 188 159 13 244 30
376 74 104 34 241 100 336 162 36 23 67 44 70 47 3 3 28 23 55 45 242 193 428
488 505 801 l23 91 66 -32 c124 -60 320 -116 461 -130 36 -3 76 -7 90 -9 19
-2 336 -209 360 -236 3 -3 17 -11 32 -19 15 -8 36 -22 45 -31 41 -37 132 -90
155 -90 15 0 29 7 34 18 4 9 8 117 9 239 1 123 3 224 6 226 2 2 40 20 84 41
290 140 541 389 681 677 74 151 125 320 142 474 9 77 9 304 0 375 -28 225
-127 474 -263 665 -214 301 -550 520 -902 589 -43 9 -91 18 -108 22 -51 10
-296 11 -377 2z"/>
</g>
</svg>
